<svg id="visual" viewBox="0 0 900 600" width="900" height="600" xmlns="http://www.w3.org/2000/svg" xmlns:xlink="http://www.w3.org/1999/xlink" version="1.1"><rect width="900" height="600" fill="#345D73"></rect><g><g transform="translate(857 367)"><path d="M0 -26.7L23.1 -13.3L23.1 13.3L0 26.7L-23.1 13.3L-23.1 -13.3Z" stroke="#FFB725" fill="none" stroke-width="2"></path></g><g transform="translate(398 264)"><path d="M0 -12L10.4 -6L10.4 6L0 12L-10.4 6L-10.4 -6Z" stroke="#FFB725" fill="none" stroke-width="2"></path></g><g transform="translate(716 276)"><path d="M0 -23L19.9 -11.5L19.9 11.5L0 23L-19.9 11.5L-19.9 -11.5Z" stroke="#FFB725" fill="none" stroke-width="2"></path></g><g transform="translate(502 71)"><path d="M0 -18L15.6 -9L15.6 9L0 18L-15.6 9L-15.6 -9Z" stroke="#FFB725" fill="none" stroke-width="2"></path></g><g transform="translate(404 112)"><path d="M0 -22L19.1 -11L19.1 11L0 22L-19.1 11L-19.1 -11Z" stroke="#FFB725" fill="none" stroke-width="2"></path></g><g transform="translate(212 276)"><path d="M0 -14L12.1 -7L12.1 7L0 14L-12.1 7L-12.1 -7Z" stroke="#FFB725" fill="none" stroke-width="2"></path></g><g transform="translate(702 135)"><path d="M0 -21L18.2 -10.5L18.2 10.5L0 21L-18.2 10.5L-18.2 -10.5Z" stroke="#FFB725" fill="none" stroke-width="2"></path></g><g transform="translate(104 577)"><path d="M0 -6L5.2 -3L5.2 3L0 6L-5.2 3L-5.2 -3Z" stroke="#FFB725" fill="none" stroke-width="2"></path></g><g transform="translate(459 338)"><path d="M0 -24L20.8 -12L20.8 12L0 24L-20.8 12L-20.8 -12Z" stroke="#FFB725" fill="none" stroke-width="2"></path></g><g transform="translate(213 46)"><path d="M0 -25L21.7 -12.5L21.7 12.5L0 25L-21.7 12.5L-21.7 -12.5Z" stroke="#FFB725" fill="none" stroke-width="2"></path></g><g transform="translate(774 166)"><path d="M0 -16L13.9 -8L13.9 8L0 16L-13.9 8L-13.9 -8Z" stroke="#FFB725" fill="none" stroke-width="2"></path></g><g transform="translate(426 477)"><path d="M0 -23L19.9 -11.5L19.9 11.5L0 23L-19.9 11.5L-19.9 -11.5Z" stroke="#FFB725" fill="none" stroke-width="2"></path></g><g transform="translate(607 92)"><path d="M0 -7L6.1 -3.5L6.1 3.5L0 7L-6.1 3.5L-6.1 -3.5Z" stroke="#FFB725" fill="none" stroke-width="2"></path></g><g transform="translate(317 328)"><path d="M0 -19L16.5 -9.5L16.5 9.5L0 19L-16.5 9.5L-16.5 -9.5Z" stroke="#FFB725" fill="none" stroke-width="2"></path></g><g transform="translate(604 198)"><path d="M0 -6L5.2 -3L5.2 3L0 6L-5.2 3L-5.2 -3Z" stroke="#FFB725" fill="none" stroke-width="2"></path></g><g transform="translate(320 488)"><path d="M0 -24L20.8 -12L20.8 12L0 24L-20.8 12L-20.8 -12Z" stroke="#FFB725" fill="none" stroke-width="2"></path></g><g transform="translate(197 110)"><path d="M0 -23L19.9 -11.5L19.9 11.5L0 23L-19.9 11.5L-19.9 -11.5Z" stroke="#FFB725" fill="none" stroke-width="2"></path></g><g transform="translate(617 512)"><path d="M0 -7L6.1 -3.5L6.1 3.5L0 7L-6.1 3.5L-6.1 -3.5Z" stroke="#FFB725" fill="none" stroke-width="2"></path></g><g transform="translate(44 356)"><path d="M0 -21L18.2 -10.5L18.2 10.5L0 21L-18.2 10.5L-18.2 -10.5Z" stroke="#FFB725" fill="none" stroke-width="2"></path></g><g transform="translate(51 145)"><path d="M0 -24L20.8 -12L20.8 12L0 24L-20.8 12L-20.8 -12Z" stroke="#FFB725" fill="none" stroke-width="2"></path></g><g transform="translate(489 196)"><path d="M0 -24L20.8 -12L20.8 12L0 24L-20.8 12L-20.8 -12Z" stroke="#FFB725" fill="none" stroke-width="2"></path></g><g transform="translate(272 588)"><path d="M0 -12L10.4 -6L10.4 6L0 12L-10.4 6L-10.4 -6Z" stroke="#FFB725" fill="none" stroke-width="2"></path></g><g transform="translate(831 513)"><path d="M0 -6L5.2 -3L5.2 3L0 6L-5.2 3L-5.2 -3Z" stroke="#FFB725" fill="none" stroke-width="2"></path></g><g transform="translate(333 557)"><path d="M0 -17L14.7 -8.5L14.7 8.5L0 17L-14.7 8.5L-14.7 -8.5Z" stroke="#FFB725" fill="none" stroke-width="2"></path></g><g transform="translate(48 42)"><path d="M0 -8L6.9 -4L6.9 4L0 8L-6.9 4L-6.9 -4Z" stroke="#FFB725" fill="none" stroke-width="2"></path></g><g transform="translate(141 442)"><path d="M0 -22L19.1 -11L19.1 11L0 22L-19.1 11L-19.1 -11Z" stroke="#FFB725" fill="none" stroke-width="2"></path></g><g transform="translate(640 581)"><path d="M0 -21L18.2 -10.5L18.2 10.5L0 21L-18.2 10.5L-18.2 -10.5Z" stroke="#FFB725" fill="none" stroke-width="2"></path></g><g transform="translate(238 508)"><path d="M0 -14L12.1 -7L12.1 7L0 14L-12.1 7L-12.1 -7Z" stroke="#FFB725" fill="none" stroke-width="2"></path></g><g transform="translate(279 367)"><path d="M0 -24L20.8 -12L20.8 12L0 24L-20.8 12L-20.8 -12Z" stroke="#FFB725" fill="none" stroke-width="2"></path></g><g transform="translate(378 35)"><path d="M0 -18L15.6 -9L15.6 9L0 18L-15.6 9L-15.6 -9Z" stroke="#FFB725" fill="none" stroke-width="2"></path></g><g transform="translate(814 323)"><path d="M0 -9L7.8 -4.5L7.8 4.5L0 9L-7.8 4.5L-7.8 -4.5Z" stroke="#FFB725" fill="none" stroke-width="2"></path></g></g></svg>