<svg width="24" height="24" viewBox="0 0 24 24" fill="none" xmlns="http://www.w3.org/2000/svg">
<circle cx="12" cy="12" r="12" fill="#335E74"/>
<g clip-path="url(#clip0_1_7)">
<path d="M12.5857 5C12.2718 5.58756 11.9235 6.18432 11.6987 6.77619C11.4303 7.4829 11.3395 8.15265 11.6464 8.83106C12.0549 8.7868 12.4973 8.82546 12.8741 8.91699C13.255 8.21166 13.309 7.48388 13.1821 6.75276C13.0779 6.15174 12.849 5.55544 12.5857 5ZM8.40071 5.6518C8.53999 6.19937 8.66487 6.7943 8.82868 7.37509C9.07815 8.25953 9.42278 9.06584 9.9733 9.53878C10.3097 9.26459 10.6985 9.06041 11.1164 8.93843C10.9252 8.32209 10.3912 7.6096 9.74947 6.93982C9.30692 6.47793 8.84162 6.05146 8.40071 5.6518ZM15.6383 6.64676C15.0942 7.08482 14.5903 7.42266 14.214 7.76978C13.7907 8.16018 13.5229 8.53883 13.4596 9.13828C13.8313 9.32013 14.1646 9.57049 14.4417 9.87595C14.9625 9.42327 15.2292 8.92244 15.391 8.33996C15.53 7.83977 15.585 7.26041 15.6383 6.64676ZM5.99221 8.20389C6.26095 8.75679 6.58344 9.30901 6.98828 9.76851C7.48078 10.3275 8.0848 10.7454 8.87761 10.8982C9.13282 10.5826 9.34834 10.1825 9.589 9.90795C9.25199 9.23939 8.66852 8.88478 7.94307 8.64394C7.3377 8.44296 6.65047 8.33375 5.99221 8.20389ZM18.9404 9.10895C18.3764 9.19234 17.7664 9.25688 17.1666 9.36114C16.2378 9.52266 15.3803 9.78889 14.8528 10.3015L15.3497 11.4662C15.9919 11.3443 16.7692 10.8841 17.5134 10.3114C18.0211 9.92076 18.4954 9.50415 18.9404 9.10895ZM12.0297 9.35918C10.5422 9.35918 9.34228 10.5475 9.34228 12.0206C9.34228 13.4937 10.5422 14.682 12.0297 14.682C13.5172 14.682 14.7171 13.4937 14.7171 12.0206C14.7171 10.5475 13.5172 9.35918 12.0297 9.35918ZM12.0297 9.73242C13.3025 9.73242 14.3402 10.7601 14.3402 12.0206C14.3402 13.281 13.3025 14.3087 12.0297 14.3087C10.7569 14.3087 9.71917 13.281 9.71917 12.0206C9.71917 10.7601 10.7569 9.73242 12.0297 9.73242ZM12.517 9.99801L12.3866 10.5332L12.8315 10.6396L12.9619 10.1043L12.517 9.99801ZM11.2706 10.2637V10.8144H11.8536V10.2637H11.2706ZM10.4166 10.8414L10.1404 11.3123L10.6213 11.5888L10.8975 11.1179L10.4166 10.8414ZM13.2711 10.9332L12.7496 10.9788L12.7984 11.5274L13.32 11.4818L13.2711 10.9332ZM12.0483 11.2309L11.5595 11.5405L11.8591 12.0044L12.3479 11.6948L12.0483 11.2309ZM8.14587 11.3155C7.55087 11.3215 6.91488 11.4783 6.46207 11.6765C5.98739 11.8959 5.50634 12.23 5 12.5876C5.68952 12.714 6.27587 12.8749 6.78672 12.9337C7.42135 13.0067 8.21333 12.8853 8.77811 12.4378L8.71887 11.364C8.53795 11.3284 8.34418 11.3136 8.14587 11.3155ZM13.6647 11.7401L13.4676 12.2549L13.9124 12.422L14.1095 11.9072L13.6647 11.7401ZM10.5734 11.8134L10.5565 12.3638L11.0627 12.3791L11.0796 11.8287L10.5734 11.8134ZM15.9122 11.9498C15.7223 11.9519 15.5257 11.9726 15.3139 12.0134C15.2534 12.4838 15.1009 12.9642 15.0095 13.3545C15.5746 13.7848 16.1866 13.8764 16.9089 13.804C17.5395 13.7408 18.2521 13.54 19 13.3359C18.5097 12.9345 17.994 12.5609 17.4456 12.3052C16.9048 12.0832 16.4662 11.9581 15.9931 11.95C15.9662 11.9495 15.9392 11.9495 15.9122 11.9498L15.9122 11.9498ZM12.8151 12.3129L12.1861 12.3281L12.1998 12.8786L12.8287 12.8634L12.8151 12.3129ZM10.7882 12.7792L10.6486 13.3122L11.2255 13.44L11.3651 12.907L10.7882 12.7792ZM13.4483 12.7971L13.0494 13.1009L13.3883 13.5374L13.7872 13.2336L13.4483 12.7971ZM8.96308 13.2816C8.24076 13.3181 7.82566 13.6017 7.39991 14.0735C7.04406 14.4678 6.51353 15.0902 6.0576 15.6622C6.73004 15.6468 7.51865 15.5134 8.04155 15.3564C8.65786 15.1713 9.17168 14.8383 9.62279 14.1709C9.36619 13.849 9.21629 13.5973 8.96311 13.2816H8.96308ZM12.3847 13.4453L11.8938 13.4604L11.9112 14.0109L12.4021 13.9957L12.3847 13.4453ZM14.6119 13.9616C14.4474 14.3349 13.6612 14.6946 13.5237 14.926C14.3746 16.1284 16.0287 16.5787 17.4256 16.6636C17.0228 16.1055 16.5968 15.4873 16.1156 14.9761C15.6596 14.4915 15.1691 14.1182 14.6119 13.9616ZM10.0755 14.5821C9.66913 15.0666 9.34398 15.8442 9.10113 16.6845C8.92422 17.2966 8.7897 17.9102 8.66608 18.4893C9.0716 18.0924 9.52555 17.6836 9.94747 17.2488C10.6002 16.5762 11.1332 15.8608 11.2542 15.1395C10.8271 15.035 10.426 14.8454 10.0755 14.5821V14.5821ZM13.076 15.2352L11.7362 15.3322C11.5106 16.735 12.3384 18.1124 13.2036 19C13.5723 17.7443 13.8316 16.1762 13.076 15.2352Z" fill="#FFD82F"/>
</g>
<defs>
<clipPath id="clip0_1_7">
<rect width="14" height="14" fill="white" transform="translate(5 5)"/>
</clipPath>
</defs>
</svg>
