<svg width="71" height="73" viewBox="0 0 71 73" fill="none" xmlns="http://www.w3.org/2000/svg">
<rect y="37" width="50" height="50" rx="5" transform="rotate(-45 0 37)" fill="#012641"/>
<path d="M20.64 22.188C20.64 20.8707 21.056 19.8653 21.888 19.172C22.72 18.4787 23.9333 18.132 25.528 18.132V34.512H43.988V22.188C43.988 20.8707 44.404 19.8653 45.236 19.172C46.068 18.4787 47.2813 18.132 48.876 18.132V51.412C48.876 52.7293 48.46 53.7347 47.628 54.428C46.796 55.1213 45.5827 55.468 43.988 55.468V38.828H25.528V51.412C25.528 52.7293 25.112 53.7347 24.28 54.428C23.448 55.1213 22.2347 55.468 20.64 55.468V22.188Z" fill="white"/>
</svg>
